<?xml version="1.0" encoding="utf-8" ?>
<svg xmlns="http://www.w3.org/2000/svg" xmlns:xlink="http://www.w3.org/1999/xlink" width="1068" height="1068">
	<path fill="#221E1C" fill-opacity="0.98039216" transform="scale(1.04351 1.04351)" d="M550.735 259.287C551.267 259.631 551.402 259.593 551.649 260.094C552.854 262.542 552.695 275.629 551.681 278.378L550.771 278.144C549.317 272.768 549.681 264.709 550.735 259.287Z"/>
	<path fill="#221E1C" transform="scale(1.04351 1.04351)" d="M676.649 526.638C674.667 520.154 674.972 512.603 674.692 505.866L675.19 505.275L674.851 504.607C676.912 509.861 677.619 515.758 679.227 521.193L677.44 520.77L676.739 521.408C676.772 522.998 677.241 525.199 676.649 526.638Z"/>
	<path fill="#221E1C" transform="scale(1.04351 1.04351)" d="M597.859 373.359C600.189 379.302 602.469 384.35 607.188 388.804L605.473 389.787C600.876 385.169 597.782 379.89 595.202 373.955L597.859 373.359Z"/>
	<path fill="#2A2727" transform="scale(1.04351 1.04351)" d="M669.063 416.973C670.106 416.934 671.145 416.922 672.171 417.151C675.904 417.983 679.443 420.385 681.47 423.636C683.097 426.247 683.671 429.365 682.791 432.339C681.662 436.154 678.717 438.42 675.325 440.177C673.606 440.782 671.844 441.291 670.107 441.839C673.459 439.104 677.987 435.769 678.512 431.133C679.168 425.331 672.733 421.284 669.415 417.392L669.063 416.973Z"/>
	<path fill="#221E1C" transform="scale(1.04351 1.04351)" d="M679.772 402.175C682.609 402.346 685.084 402.869 687.489 404.477Q687.966 404.791 688.407 405.153Q688.85 405.514 689.253 405.918Q689.655 406.323 690.015 406.766Q690.375 407.209 690.688 407.687Q691 408.165 691.263 408.671Q691.525 409.178 691.735 409.709Q691.944 410.24 692.099 410.79Q692.253 411.34 692.351 411.902C693.051 415.75 692.327 419.164 690.07 422.344C689.289 421.903 689.096 414.163 688.588 412.398C688.108 411.506 687.589 410.575 686.94 409.796C681.342 403.085 674.911 410.075 668.722 409.87L668.207 409.153L668.606 407.783C671.88 404.449 675.165 402.854 679.772 402.175Z"/>
	<path fill="#2A2727" transform="scale(1.04351 1.04351)" d="M573.888 293.401C573.603 296.888 573.848 300.501 573.08 303.92C572.264 304.527 572.506 304.608 571.631 304.493C568.8 304.122 565.606 299.859 563.961 297.611C561.248 293.9 558.415 288.307 559.323 283.589C559.568 282.317 560.216 281.184 561.393 280.56C563.703 279.335 566.439 280.017 568.724 280.869C571.852 283.104 572.906 285.988 573.57 289.666C573.766 290.753 573.502 292.469 573.888 293.401Z"/>
	<path fill="#221E1C" transform="scale(1.04351 1.04351)" d="M737.168 689.339C738.862 694.45 714.636 770.692 710.856 780.673C710.807 780.548 710.743 780.429 710.71 780.299C710.038 777.681 711.794 771.819 712.353 769.13C717.908 742.415 725.873 714.223 737.168 689.339Z"/>
	<path fill="#2A2727" transform="scale(1.04351 1.04351)" d="M814.145 188.356C819.413 191.47 825.113 194.678 829.408 199.113C836.884 206.834 837.584 221.153 837.464 231.304C836.081 229.982 834.789 228.632 833.533 227.188C829.157 221.107 824.797 214.858 821.438 208.145L823.754 208.051C825.554 207.98 827.185 208.046 828.719 206.956C829.784 206.199 830.021 205.478 830.115 204.252C829.791 203.673 829.491 203.219 828.939 202.83C825.616 200.482 821.786 201.502 818.117 202.221C816.699 197.629 815.192 193.05 814.145 188.356Z"/>
	<path fill="#2A2727" transform="scale(1.04351 1.04351)" d="M541.33 376.194C545.459 375.896 549.757 375.951 553.863 376.517C566.608 378.276 579.756 385.714 587.592 395.953C584.232 394.51 581.046 392.721 577.832 390.985C563.621 383.628 551.482 382.391 535.727 384.316C533.19 384.626 530.603 384.829 528.496 383.155C528.241 382.043 528.15 381.852 528.834 380.837C531.328 377.136 537.281 376.689 541.33 376.194Z"/>
	<path fill="#2A2727" transform="scale(1.04351 1.04351)" d="M559.076 273.819C558.959 269.531 558.465 264.637 559.748 260.503C566.644 266.32 572.665 272.821 578.902 279.322C582.52 283.092 586.903 288.374 591.273 291.127C588.307 295.042 583.594 299.119 579.553 301.96C579.435 298.597 579.388 295.211 579.131 291.855C577.966 291.526 576.854 291.295 575.672 291.762C574.733 292.132 574.348 292.555 573.888 293.401C573.502 292.469 573.766 290.753 573.57 289.666C572.906 285.988 571.852 283.104 568.724 280.869C567.619 278.083 566.634 275.669 564.687 273.339L559.076 273.819Z"/>
	<path fill="#DA9D54" transform="scale(1.04351 1.04351)" d="M564.687 273.339C568.248 273.292 570.25 274.407 572.812 276.874C576.297 280.229 580.132 286.281 579.303 291.423C579.278 291.576 579.188 291.711 579.131 291.855C577.966 291.526 576.854 291.295 575.672 291.762C574.733 292.132 574.348 292.555 573.888 293.401C573.502 292.469 573.766 290.753 573.57 289.666C572.906 285.988 571.852 283.104 568.724 280.869C567.619 278.083 566.634 275.669 564.687 273.339Z"/>
	<path fill="#2A2727" transform="scale(1.04351 1.04351)" d="M539.394 408.88C544.465 411.808 544.221 416.532 547.477 420.547C549.179 422.646 552.52 423.264 555.075 423.431C563.622 423.989 566.548 418.749 572.443 414.268C573.5 413.464 574.024 413.283 575.317 413.475L575.806 414.558C575.477 419.102 571.083 423.23 567.938 426.238C564.891 428.683 561.057 430.943 557.295 432.024C553.091 433.232 549.621 432.899 545.817 430.795C542.473 432.869 538.537 434.462 534.511 434.283C533.368 434.232 532.911 434.035 532.184 433.132C532.497 430.447 536.314 429.949 537.944 427.586C541.423 422.542 540.401 414.602 539.394 408.88Z"/>
	<path fill="#2A2727" transform="scale(1.04351 1.04351)" d="M905.741 334.853C906.766 334.866 907.828 334.877 908.83 335.117C913.926 336.341 918.311 340.87 920.86 345.246C928.144 357.751 926.814 373.41 923.112 386.823C918.315 404.206 908.537 421.608 892.486 430.749C891.902 430.786 890.918 430.925 890.317 430.798C888.985 430.517 888.774 430.314 888.189 429.21C888.869 425.351 896.976 420.251 899.84 417.359C911.533 405.548 920.211 382.723 920.025 366.156C919.874 352.714 914.455 347.559 905.332 338.755C904.899 337.154 905.299 336.427 905.741 334.853Z"/>
	<path fill="#2A2727" transform="scale(1.04351 1.04351)" d="M596.467 293.75L596.836 294.009C603.224 298.432 610.612 300.601 612.333 309.23C614.582 320.507 602.188 338.852 598.178 349.891C594.956 357.414 595.846 365.629 597.859 373.359L595.202 373.955C592.027 363.929 591.306 352.342 594.019 342.113C595.665 335.907 598.053 330.007 599.485 323.714C596.084 320.033 585.233 311.372 584.503 307.13C585.792 304.366 589.675 301.85 591.815 299.582C593.524 297.771 594.993 295.753 596.467 293.75Z"/>
	<path fill="#2A2727" transform="scale(1.04351 1.04351)" d="M568.431 200.154C570.553 200.016 572.608 200.071 574.636 200.794C581.057 203.083 587.46 209.914 590.268 216.046C588.881 216.252 587.469 216.453 586.105 216.782C574.029 219.692 565.087 229.85 558.722 239.87C556.813 243.508 555.865 248.512 553.706 251.775C553.089 252.707 552.502 252.694 551.512 252.846L550.668 252.013C547.712 243.233 552.676 222.625 556.563 213.873C559.188 207.965 562.077 202.598 568.431 200.154Z"/>
	<path fill="#2A2727" transform="scale(1.04351 1.04351)" d="M842.798 237.999C845.587 235.945 848.753 235.559 852.15 236.078C864.914 238.027 876.464 251.635 883.331 261.545C885.911 265.269 888.051 268.835 889.427 273.176C885.009 273.423 880.57 273.576 876.159 273.919C868.071 273.925 859.978 277.918 852.339 280.317C853.068 278.228 853.76 276.052 854.114 273.865C856.293 260.411 850.454 248.644 842.798 237.999Z"/>
	<path fill="#DA9D54" transform="scale(1.04351 1.04351)" d="M589.87 852.574C591.094 871.737 588.949 909.172 604.477 922.408C612.508 929.255 624.826 931.621 635.106 930.573C642.525 929.817 649.311 926.848 654.098 920.965C659.593 914.211 662.649 905.459 665.553 897.356C673.324 875.674 680.91 841.455 698.706 826.468C693.1 837.637 687.608 848.674 683.398 860.467C679.721 870.765 676.505 881.249 673.128 891.649C667.94 907.627 663.176 927.778 645.336 933.828C633.744 937.76 618.176 936.194 607.318 930.694C599.138 926.549 593.701 919.983 590.87 911.295C586.07 896.561 586.02 878.587 586.079 863.129L586.429 863.584L587.066 863.528C588.418 860.078 589.047 856.192 589.87 852.574Z"/>
	<path fill="#2A2727" transform="scale(1.04351 1.04351)" d="M685.383 474.075C696.457 469.855 704.607 463.928 712.082 454.667C721.124 459.03 732.221 463.696 735.86 473.961C737.849 479.571 736.621 484.945 735.292 490.505C734.983 491.37 734.524 492.179 733.876 492.842C732.002 494.761 729.074 495.132 726.532 494.94C714.736 494.05 693.077 482.618 685.383 474.075Z"/>
	<path fill="#2A2727" transform="scale(1.04351 1.04351)" d="M643.18 410.567C645.722 410.561 647.908 411.008 650.192 412.136C654.449 414.236 657.794 417.978 659.119 422.57C660.059 425.825 659.887 429.485 658.143 432.448C655.816 436.404 652.399 437.798 648.118 438.785C649.496 443.753 650.142 449.122 648.834 454.179C647.805 458.159 645.532 462.029 641.816 464.02C638.281 465.914 634.616 465.667 630.88 464.646C629.092 463.884 627.517 462.996 625.968 461.811C623.147 459.653 620.915 456.853 620.535 453.222C620.164 449.68 621.487 446.413 623.764 443.74C628.535 438.138 635.344 436.236 642.381 435.799C638.782 432.115 634.265 428.067 632.899 422.903C632.255 420.469 632.394 417.764 633.833 415.628C635.896 412.566 639.754 411.271 643.18 410.567ZM640.74 440.052C635.407 441.099 629.267 442.969 626.187 447.846C625.164 449.465 624.703 451.304 625.25 453.18C626.083 456.034 628.77 457.989 631.28 459.304C634.169 460.116 636.559 460.621 639.315 459.103C642.406 457.401 644.22 454.274 645.074 450.937C645.857 447.874 646.005 444.218 644.42 441.372C644.065 440.735 643.634 440.396 643.027 440.021L640.74 440.052ZM643.022 415.559C641.145 416.169 639.34 416.697 638.398 418.618C637.429 420.597 638.012 423.108 638.845 425.028C640.113 427.949 643.737 433.134 646.941 434.193C647.881 434.504 648.96 434.422 649.927 434.309C652.259 432.977 654.207 431.684 654.968 428.964C655.667 426.463 655.107 423.836 653.728 421.669C651.891 418.782 648.912 416.534 645.537 415.855C644.703 415.688 643.873 415.582 643.022 415.559Z"/>
	<path fill="#2A2727" transform="scale(1.04351 1.04351)" d="M899.332 352.545C903.972 370.295 909.78 389.967 899.812 407.042C894.918 415.425 887.382 420.598 879.582 426.001C878.948 417.54 874.841 409.716 874.516 401.088C873.656 378.21 892.271 371.641 899.002 353.451L899.332 352.545Z"/>
	<path fill="#2A2727" transform="scale(1.04351 1.04351)" d="M756.595 168.043C772.663 170.823 792.709 177.376 806.826 185.461C807.729 191.554 809.774 197.66 811.563 203.555Q797.755 207.101 783.688 209.421L775.782 209.813C777.844 203.504 781.339 193.527 778.37 187.103C777.319 186.333 776.916 186.078 775.52 186.447C769.977 187.913 772.139 202.154 768.869 206.479C768.024 207.597 767.74 207.518 766.439 207.625C763.326 206.386 760.887 202.849 759.043 200.136C753.174 191.5 754.654 177.688 756.595 168.043Z"/>
	<path fill="#2A2727" transform="scale(1.04351 1.04351)" d="M550.465 289.88C553.246 292.278 554.061 305.762 556.802 310.436C560.055 315.983 565.616 317.978 571.51 319.42C572.573 316.839 573.072 312.397 575.092 310.486C576.071 309.561 576.65 309.537 577.894 309.479C577.988 309.607 578.101 309.724 578.177 309.864C579.277 311.913 578.144 316.118 577.786 318.37C582.018 320.501 586.484 323.254 589.38 327.078C592.564 331.282 593.132 336.573 592.293 341.697C592.087 342.957 591.936 343.558 590.835 344.276L589.866 343.819C589.48 342.085 589.21 340.339 588.907 338.589C587.618 331.153 585.738 328.457 579.595 324.123L575.527 322.005C573.36 326.364 571.08 330.141 567.637 333.622C561.926 339.395 554.46 342.865 546.237 342.762C540.874 342.695 535.429 341.164 531.72 337.087C528.67 333.735 527.4 329.128 527.597 324.664C528.218 310.581 540.655 298.588 550.465 289.88ZM544.761 301.91C538.839 307.758 532.566 315.809 532.454 324.548C532.408 328.077 533.561 331.64 536.177 334.097C539.349 337.076 543.79 337.633 547.962 337.351C550.556 337.176 553.032 336.612 555.527 335.905C561.735 332.834 565.819 329.198 569.394 323.186C563.32 322.426 557.428 320.866 553.563 315.705C550.348 311.411 548.808 305.494 544.761 301.91Z"/>
	<path fill="#DA9D54" transform="scale(1.04351 1.04351)" d="M762.963 682.337C771.168 689.396 774.227 698.443 774.995 709.025C776.839 734.423 763.971 787.909 757.482 814.279C754.128 827.908 749.267 842.469 749.376 856.589C749.437 864.42 751.436 871.903 757.623 877.183C772.602 889.967 804.868 890.192 823.77 888.317C831.644 887.536 841.143 886.59 848.258 882.95Q849.997 871.684 851.488 860.382C851.933 857.083 852.035 853.272 852.86 850.082C855.037 849.238 856.793 848.209 858.708 846.878C857.623 855.821 855.916 878.42 853.031 885.805C840.185 896.128 804.747 895.768 788.332 894.017C775.134 892.61 758.398 888.85 749.718 877.831C742.456 868.612 743.166 854.992 744.677 844.055C746.011 834.395 748.517 824.841 750.764 815.362C755.062 797.224 759.824 779.175 763.869 760.98C767.367 745.242 770.749 729.03 769.465 712.819C768.631 702.283 764.848 692.622 762.963 682.337Z"/>
	<path fill="#2A2727" transform="scale(1.04351 1.04351)" d="M541.23 260.349L542.11 260.522C543.75 263.413 544.145 278.311 544.588 282.83C520.872 310.148 512.476 347.716 519.257 382.952C521.928 396.832 527.188 410.22 524.024 424.538C522.98 429.265 521.208 433.737 518.438 437.72C514.34 443.613 501.403 452.969 501.009 459.538C500.895 461.436 501.658 463.165 502.935 464.546C506.877 468.812 516.494 470.181 522.132 470.098C525.85 470.043 529.237 469.21 531.877 466.451C534.246 463.975 534.464 461.804 534.426 458.506L534.412 457.754L534.896 457.801C535.994 459.592 536.953 461.407 537.196 463.529C537.45 465.755 536.728 467.875 535.229 469.529C531.394 473.76 526.138 473.772 520.878 474.098C514.522 474.593 508.188 474.871 502.252 472.068C498.508 470.301 495.669 467.521 494.279 463.58C491.13 454.651 502.798 445.845 507.992 439.709C511.232 435.88 514.394 431.263 516.207 426.562C517.36 423.572 517.78 420.025 518.025 416.843C518.842 406.206 515.246 395.551 513.121 385.229C507.72 358.99 510.558 329.447 522.144 305.212C520.142 306.886 518.055 308.513 515.774 309.794C513.177 311.252 508.982 313.472 505.994 312.262C504.939 311.834 504.208 310.973 503.805 309.927C502.464 306.439 503.985 301.936 505.316 298.637C511.838 282.467 525.081 267.179 541.23 260.349Z"/>
	<path fill="#2A2727" transform="scale(1.04351 1.04351)" d="M504.091 154.538C509.893 154.254 514.109 155.621 518.672 159.397Q520.187 160.675 521.545 162.119Q522.903 163.563 524.086 165.154Q525.269 166.745 526.262 168.461Q527.254 170.177 528.042 171.996C531.294 179.663 529.595 188.044 532.111 195.906C534.58 203.62 542.508 211.109 542.942 219.283C543.032 220.97 542.555 222.32 541.407 223.574C536.863 228.537 527.073 231.33 520.504 231.593C518.547 231.61 516.629 231.522 514.695 231.205C505.294 229.662 497.412 222.755 492 215.256C484.834 205.325 479.92 189.415 482.261 177.164C482.741 174.655 483.889 171.9 486.126 170.465C488.676 168.83 492.411 169.467 495.208 169.96C495.522 166.974 495.88 163.511 497.075 160.73C498.543 157.311 500.773 155.921 504.091 154.538Z"/>
	<path fill="#2A2727" transform="scale(1.04351 1.04351)" d="M804.768 159.456C805.875 162.686 808.528 168.233 807.588 171.507C806.533 172.428 806.252 172.47 804.86 172.738C803.042 172.145 802.73 171.535 801.872 169.852C795.724 157.795 792.678 147.338 778.54 142.602C770.879 140.035 760.8 139.51 752.999 141.766C750.605 142.458 747.641 144.303 745.213 144.442C743.792 144.524 742.553 144.113 741.565 143.058C741.385 142.147 741.238 142.33 741.693 141.602C744.178 137.625 751.736 135.841 756.036 135.121C767.739 133.161 780.225 135.098 790 142.072Q791.721 143.308 793.296 144.725Q794.872 146.142 796.283 147.723Q797.694 149.304 798.923 151.029Q800.153 152.755 801.186 154.605C808.619 152.285 817.921 155.006 824.65 158.516C835.943 164.406 843.055 176.05 846.665 187.938C848.38 193.588 849.264 199.455 850.077 205.291C866.41 208.713 881.637 220.752 890.722 234.494C898.632 246.46 903.021 260.187 900.117 274.508C899.96 275.287 899.779 276.051 899.586 276.821C911.931 282.518 920.827 291.323 925.633 304.26C928.349 311.57 929.922 327.646 926.39 334.858C925.811 336.039 925.293 336.462 924.147 337.047C922.731 336.958 922.163 336.677 921.012 335.858C919.979 332.976 922.238 327.535 922.449 324.094C923.418 308.287 914.275 291.111 899.773 284.24C898.684 283.724 897.549 283.293 896.424 282.864C892.982 286.19 887.865 290.998 883.018 291.83C882.322 293.157 882.113 293.343 882.288 294.806L883.316 295.712C881.419 297.157 859.727 303.62 856.526 304.351Q851.664 305.493 846.676 305.732C837.381 306.117 827.152 303.478 820.309 296.901C815.492 292.271 813.057 286.195 813.068 279.541C813.094 264.322 823.928 250.091 834.029 239.713C831.8 236.3 828.535 232.917 827.056 229.167C829.462 230.465 839.593 238.424 841.026 238.473C841.072 238.475 842.481 238.152 842.5 238.146C842.606 238.114 842.699 238.048 842.798 237.999C850.454 248.644 856.293 260.411 854.114 273.865C853.76 276.052 853.068 278.228 852.339 280.317C859.978 277.918 868.071 273.925 876.159 273.919C876.638 275.707 877.087 277.483 877.754 279.211C880.811 280.645 885.834 280.229 888.933 279.004C891.478 277.998 893.292 276.105 894.31 273.575C897.576 265.461 894.163 253.945 890.665 246.438C883.741 231.578 870.4 218.418 854.837 212.836Q852.773 212.1 850.688 211.424C850.343 213.985 850.282 217.885 848.332 219.694C847.14 219.268 846.799 218.829 846.281 217.657C844.495 213.611 844.443 207.407 843.762 202.96C841.175 186.043 834.744 169.98 818.229 162.446C813.906 160.474 809.54 159.35 804.768 159.456Z"/>
	<path fill="#DA9D54" transform="scale(1.04351 1.04351)" d="M834.029 239.713C831.8 236.3 828.535 232.917 827.056 229.167C829.462 230.465 839.593 238.424 841.026 238.473C841.072 238.475 842.481 238.152 842.5 238.146C842.606 238.114 842.699 238.048 842.798 237.999C850.454 248.644 856.293 260.411 854.114 273.865C853.76 276.052 853.068 278.228 852.339 280.317C859.978 277.918 868.071 273.925 876.159 273.919C876.638 275.707 877.087 277.483 877.754 279.211C877.574 279.229 877.394 279.244 877.215 279.265C869.922 280.12 848.178 290.747 842.747 286.658C842.067 286.147 842.112 285.652 841.899 284.88C842.566 281.503 844.893 279.319 846.223 276.256C850.007 267.543 847.275 255.714 842.126 248.044C841.23 246.709 840.284 245.427 839.188 244.25C830.088 252.541 821.028 265.023 820.372 277.787C820.126 282.568 821.251 287.37 824.682 290.87C830.29 296.591 837.878 299.125 845.756 299.049C850.453 299.004 855.215 298.17 859.739 296.944C865.586 295.36 877.31 289.337 883.018 291.83C882.322 293.157 882.113 293.343 882.288 294.806L883.316 295.712C881.419 297.157 859.727 303.62 856.526 304.351Q851.664 305.493 846.676 305.732C837.381 306.117 827.152 303.478 820.309 296.901C815.492 292.271 813.057 286.195 813.068 279.541C813.094 264.322 823.928 250.091 834.029 239.713Z"/>
	<path fill="#2A2727" transform="scale(1.04351 1.04351)" d="M602.995 207.587C597.805 184.873 593.558 160.728 606.802 139.755C612.599 130.576 621.726 123.864 632.406 121.604C640.804 119.827 649.629 120.929 656.847 125.757C660.685 128.325 663.727 131.571 666.185 135.472C672.609 130.911 679.98 126.217 688.278 127.559C693.147 128.347 697.003 131.375 699.679 135.428C702.986 140.435 703.841 145.877 704.607 151.679C711.141 153.28 716.141 155.663 721.211 160.184C731.258 161.333 740.846 163.724 750.665 166.019C745.98 175.396 746.126 187.872 749.449 197.698C752.114 205.577 757.17 211.081 764.584 214.778Q763.192 216.579 761.558 218.163C754.358 225.278 742.294 231.933 731.932 231.706C723.063 231.513 714.732 226.431 708.7 220.211C702.355 213.67 698.436 205.366 698.603 196.164C696.404 195.497 694.39 194.566 692.308 193.609C692.694 186.493 697.87 178.403 702.759 173.454C705.898 170.276 710.005 167.405 711.747 163.198L711.11 162.152C706.469 162.034 702.833 165.628 699.527 168.421C698.143 167.903 696.924 166.306 695.892 165.242Q697.908 163.171 700.005 161.184C684.99 161.809 669.995 161.271 654.973 162.217Q655.574 158.9 656.562 155.677Q657.551 152.455 658.912 149.371L655.37 149.47C652.978 152.988 649.622 158.229 648.823 162.415C640.448 162.923 631.382 164.042 625.448 170.709Q623.336 173.046 621.909 175.853C620.942 176.245 619.992 176.408 618.974 176.614C617.375 176.131 617.322 176.029 616.298 174.695C614.856 174.589 613.417 174.451 611.969 174.495C613.427 178.295 615.439 181.683 617.219 185.321C616.297 190.677 616.323 195.996 615.725 201.366C615.227 205.356 614.718 210.46 611.82 213.494C610.911 214.11 610.15 214.617 609.389 215.424C606.004 214.665 602.639 213.885 599.291 212.978C595.516 208.023 590.017 203.874 585.501 199.526C580.294 194.513 575.581 188.834 569.9 184.348C566.763 181.871 563.432 179.71 559.664 178.316C559.652 184.416 559.874 207.168 555.871 211.214C554.761 210.329 554.457 208.629 554.266 207.243C553.272 199.996 556.737 183.364 554.636 178.209C553.142 177.537 551.576 177.856 550.018 178.383C546.801 179.471 544.514 182.636 543.237 185.636C541.784 189.049 541.249 196.358 538.484 198.568C537.312 198.088 536.936 197.329 536.486 196.178C534.916 192.159 536.562 185.581 538.417 181.897C540.46 177.84 543.904 174.656 548.273 173.275C550.094 172.699 551.855 172.651 553.744 172.623L554.588 172.604L555.095 172.6C552.047 161.703 549.565 151.338 538.897 145.317C530.262 140.443 519.487 139.941 510.105 142.695C506.708 143.692 502.862 145.205 499.915 147.178C494.829 150.584 487.584 161.919 483.172 163.178L482.638 162.694C483.136 156.341 488.807 149.794 493.475 145.793C502.634 137.943 513.831 135.124 525.716 136.063C534.911 136.789 543.82 140.469 549.841 147.641C555.953 154.919 558.027 163.776 559.185 172.983C570.952 176.92 577.247 184.66 585.955 193.061C591.282 198.201 597.09 203.132 602.995 207.587ZM608.452 210.134C609.503 211.298 610.513 212.613 611.82 213.494C614.718 210.46 615.227 205.356 615.725 201.366C616.323 195.996 616.297 190.677 617.219 185.321C615.439 181.683 613.427 178.295 611.969 174.495C611.01 167.601 612.339 160.85 616.636 155.242C622.31 147.838 630.898 145.175 639.768 144.151C646.027 143.428 652.247 143.449 658.532 143.725C660.079 141.779 661.568 139.794 663.375 138.079C656.626 131.293 650.165 126.194 640.052 126.16C631.128 126.13 621.341 130.268 615.162 136.686C605.834 146.374 602.586 160.924 602.905 173.998C603.207 186.41 606.847 197.958 608.452 210.134ZM658.912 149.371Q657.551 152.455 656.562 155.677Q655.574 158.9 654.973 162.217C669.995 161.271 684.99 161.809 700.005 161.184Q697.907 163.171 695.892 165.242C696.924 166.306 698.143 167.903 699.527 168.421C702.833 165.628 706.469 162.034 711.11 162.152L711.747 163.198C710.005 167.405 705.898 170.276 702.759 173.454C697.87 178.403 692.694 186.493 692.308 193.609C694.39 194.566 696.404 195.497 698.603 196.164C702.905 182.855 709.69 174.087 720.544 165.353C717.245 162.86 714.063 160.617 710.204 159.062C699.004 154.547 671.662 150.964 658.912 149.371ZM616.298 174.695C617.322 176.029 617.375 176.131 618.974 176.614C619.992 176.408 620.942 176.245 621.909 175.853Q623.336 173.046 625.448 170.709C631.382 164.042 640.448 162.923 648.823 162.415C649.622 158.229 652.978 152.988 655.37 149.47C646.863 147.377 633.561 149.311 625.957 153.804C621.9 156.201 617.993 160.078 616.743 164.753C615.899 167.911 616.205 171.458 616.298 174.695ZM682.151 132.632C674.924 135.131 669.856 138.985 664.435 144.299C671.527 145.675 678.712 146.59 685.788 148.009C690.525 148.918 695.282 149.77 700.005 150.745C699.639 145.215 698.172 139.245 693.815 135.454C691.12 133.11 687.728 132.075 684.184 132.38Q683.164 132.475 682.151 132.632Z"/>
	<path fill="#DA9D54" transform="scale(1.04351 1.04351)" d="M505.115 617.892C509.578 614.049 514.467 610.873 520.147 609.19C541.212 602.946 569.16 610.569 587.934 620.62C576.211 625.693 565.055 634.877 558.867 646.166C557.011 649.55 555.511 654.257 553.138 657.197C553.032 657.328 552.909 657.443 552.794 657.567C539.292 673.563 527.601 691.786 516.245 709.366C495.055 742.17 463.48 791.201 455.825 829.407C451.617 850.413 453.558 873.063 455.339 894.257C456.645 909.804 460.075 947.976 471.34 957.946C473.389 959.76 475.929 960.879 478.701 960.717C484.351 960.385 489.297 955.446 492.729 951.318C504.031 937.724 511.435 919.449 518.525 903.394C521.092 897.582 523.444 891.512 526.628 886.011C530.657 879.054 535.504 873.187 540.986 867.339C537.444 874.17 533.271 880.79 530.166 887.824C521.785 906.806 504.036 959.695 483.384 966.004C479.196 967.284 474.791 966.875 470.989 964.67C461.787 959.329 458.036 946.858 455.695 937.211C451.552 920.14 449.792 902.171 448.51 884.683C447.269 867.74 446.391 850.314 448.916 833.44C454.032 799.249 478.374 758.664 496.347 729.379C506.764 712.405 519.931 694.501 529.277 677.365C509.38 690.955 481.562 702.283 457.018 697.719C452.187 696.82 447.005 694.736 444.226 690.438C443.395 689.153 442.9 687.622 442.421 686.176C445.475 684.65 448.145 682.805 450.666 680.501C466.638 665.906 469.39 643.756 470.293 623.383C487.422 623.49 505.214 624.492 522.162 626.999C530.02 628.161 541.641 631.989 548.906 631.971C550.058 631.968 550.177 632.061 550.996 631.197C550.839 630.899 550.715 630.581 550.524 630.304C547.028 625.241 526.682 620.482 520.242 619.429C515.233 618.61 510.175 618.218 505.115 617.892Z"/>
	<path fill="#DA9D54" transform="scale(1.04351 1.04351)" d="M269.242 624.024C290.723 638.685 311.447 654.044 334.484 666.304C337.692 668.012 342.035 670.773 345.54 671.594C351.9 680.411 358.823 687.984 364.22 697.619C373.239 713.72 376.746 732.019 371.502 749.985C364.115 775.294 342.307 794.695 319.702 806.851C290.221 822.705 262.483 823.584 230.859 813.965C205.67 806.303 162.409 785.393 149.856 761.585C141.896 746.486 142.825 728.087 147.905 712.203C160.682 672.251 210.472 651.365 244.958 633.666C247.323 631.338 265.09 625.572 269.242 624.024Z"/>
	<path fill="#2A2727" transform="scale(1.04351 1.04351)" d="M655.37 149.47L658.912 149.371Q657.551 152.455 656.562 155.677Q655.574 158.9 654.973 162.217C669.995 161.271 684.99 161.809 700.005 161.184Q697.907 163.171 695.892 165.242C696.924 166.306 698.143 167.903 699.527 168.421C702.833 165.628 706.469 162.034 711.11 162.152L711.747 163.198C710.005 167.405 705.898 170.276 702.759 173.454C697.87 178.403 692.694 186.493 692.308 193.609C694.39 194.566 696.404 195.497 698.603 196.164C698.436 205.366 702.355 213.67 708.7 220.211C714.732 226.431 723.063 231.513 731.932 231.706C742.294 231.933 754.358 225.278 761.558 218.163Q763.192 216.579 764.584 214.778C764.751 214.758 764.919 214.74 765.087 214.719C766.81 214.496 768.087 214.077 769.638 213.308L770.926 213.557C770.947 213.771 770.961 213.986 770.989 214.199C771.09 214.976 771.28 215.484 771.601 216.184L772.411 216.745C781.994 217.632 792.475 216.198 801.606 213.214L802.233 212.433C801.887 210.859 800.612 208.626 801.242 207.263L802.782 207.346L803.379 208.093C803.081 209.395 802.695 210.065 803.185 211.352C806.292 212.992 811.169 210.883 814.382 210.132C817.924 217.044 821.151 223.922 827.056 229.167C828.535 232.917 831.8 236.3 834.029 239.713C823.928 250.091 813.094 264.322 813.068 279.541C813.057 286.195 815.492 292.271 820.309 296.901C827.152 303.478 837.381 306.117 846.676 305.732Q851.664 305.493 856.526 304.351C859.727 303.62 881.419 297.157 883.316 295.712C886.264 295.42 888.661 295.243 891.111 297.172C892.399 298.187 893.031 299.736 893.124 301.339C893.208 302.793 892.962 304.026 892.581 305.418L892.081 305.529C890.822 302.904 889.52 299.166 886.595 297.999C885.212 297.448 883.556 297.686 882.26 298.363C881.268 298.881 881.088 299.049 880.649 300.02C881.771 303.281 884.475 305.639 886.3 308.521C891.005 315.95 896.05 327.835 896.12 336.715C897.06 340.988 898.215 345.319 898.734 349.665L899.332 352.545L899.002 353.451C892.271 371.641 873.656 378.21 874.516 401.088C874.841 409.716 878.948 417.54 879.582 426.001C877.344 427.46 875.088 428.766 873.354 430.833C873.417 431 873.465 431.173 873.541 431.335C873.94 432.176 874.451 432.675 875.058 433.364C877.86 436.543 878.25 440.049 877.884 444.215C876.925 455.159 869.382 462.856 861.724 469.906C863.406 481.406 863.552 496.699 856.292 506.554Q854.957 508.342 853.499 510.032C853.622 510.172 853.746 510.311 853.867 510.452C856.208 513.187 857.045 516.316 856.71 519.937C856.352 523.814 853.988 527.294 851.01 529.684C847.096 532.826 842.502 533.621 837.612 532.912C835.324 532.581 832.279 531.895 831.038 529.693C830.205 528.215 830.515 526.571 831.126 525.09C832.016 522.93 833.507 521.194 834.973 519.41C836.933 517.024 838.974 514.243 841.399 512.332C847.203 507.761 851.761 506.2 856.056 499.643C849.767 500.74 845.212 500.423 839.706 496.691C836.523 494.533 833.245 491.2 831.854 487.601C830.098 487.037 824.74 486.866 823.039 487.679C822.773 487.807 822.564 488.029 822.327 488.204C816.028 494.564 811.633 502.628 805.295 509.087C795.988 518.571 783.977 524.832 770.494 524.828C762.87 524.826 755.452 522.293 750.09 516.691C740.91 507.099 742.217 495.293 742.679 483.081C740.366 485.788 738.029 488.221 735.292 490.505C736.621 484.945 737.849 479.571 735.86 473.961C732.221 463.696 721.124 459.03 712.082 454.667L715.068 449.11C718.159 440.717 718.606 433.316 718.233 424.428C716.577 413.789 713.019 403.656 705.945 395.385C694.965 382.548 679.546 376.006 663.568 384.218C658.461 386.843 653.374 390.895 647.703 392.131C643.72 392.999 639.12 392.025 635.071 391.725C630.969 394.102 627.389 395.235 622.731 396.062C616.755 395.103 612.15 392.07 607.188 388.804C602.469 384.35 600.189 379.302 597.859 373.359C595.846 365.629 594.956 357.414 598.178 349.891C602.188 338.852 614.582 320.507 612.333 309.23C610.612 300.601 603.224 298.432 596.836 294.009L596.467 293.75C595.603 292.963 594.743 292.131 593.731 291.535C592.579 290.857 592.494 290.776 591.273 291.127C586.903 288.374 582.52 283.092 578.902 279.322C572.665 272.821 566.644 266.32 559.748 260.503C561.411 259.132 562.955 258.103 563.686 255.992C562.557 255.075 561.87 254.828 561.691 253.298C561.219 249.273 566.415 241.922 568.776 238.765C577.279 227.39 587.708 223.199 601.32 221.196C600.279 218.425 599.588 215.934 599.291 212.978C602.639 213.885 606.004 214.665 609.389 215.424C610.15 214.617 610.911 214.11 611.82 213.494C614.718 210.46 615.227 205.356 615.725 201.366C616.323 195.996 616.297 190.677 617.219 185.321C615.439 181.683 613.427 178.295 611.969 174.495C613.417 174.451 614.856 174.589 616.298 174.695C617.322 176.029 617.375 176.131 618.974 176.614C619.992 176.408 620.942 176.245 621.909 175.853Q623.336 173.046 625.448 170.709C631.382 164.042 640.448 162.923 648.823 162.415C649.622 158.229 652.978 152.988 655.37 149.47ZM850.307 439.506C848.961 439.19 848.501 438.816 847.262 439.503C847.225 440.794 847.408 441.729 847.722 442.964C841.87 439.226 835.03 435.439 828.573 432.886C822.819 447.544 812.79 455.797 798.533 462.019C796.591 462.867 783.423 467.131 783.02 467.485C782.642 468.685 782.556 469.282 783.122 470.457C785.372 475.124 791.653 477.742 796.366 479.044C806.204 481.762 822.306 482.624 832.509 481.026C836.283 480.435 840.177 478.39 843.949 478.32C845.536 478.291 846.18 478.915 847.156 480.06C847.046 481.325 846.744 481.818 845.718 482.615C842.978 484.745 835.267 487.572 831.854 487.601C833.245 491.2 836.523 494.533 839.706 496.691C845.212 500.423 849.767 500.74 856.056 499.643C851.761 506.2 847.203 507.761 841.399 512.332C838.974 514.243 836.933 517.024 834.973 519.41C833.507 521.194 832.016 522.93 831.126 525.09C830.515 526.571 830.205 528.215 831.038 529.693C832.279 531.895 835.324 532.581 837.612 532.912C842.502 533.621 847.096 532.826 851.01 529.684C853.988 527.294 856.352 523.814 856.71 519.937C857.045 516.316 856.208 513.187 853.867 510.452C853.746 510.311 853.622 510.172 853.499 510.032Q854.957 508.342 856.292 506.554C863.552 496.699 863.406 481.406 861.724 469.906C869.382 462.856 876.925 455.159 877.884 444.215C878.25 440.049 877.86 436.543 875.058 433.364C874.451 432.675 873.94 432.176 873.541 431.335C873.465 431.173 873.417 431 873.354 430.833C873.357 429.094 873.45 427.669 872.666 426.085C869.532 422.997 860.041 422.454 855.79 422.489C849.974 422.538 840.512 423.929 835.773 427.233L835.311 428.341C836.574 431.394 846.925 435.741 850.307 439.506ZM608.21 343.848C604.95 346.283 602.08 348.59 598.178 349.891C594.956 357.414 595.846 365.629 597.859 373.359C600.189 379.302 602.469 384.35 607.188 388.804C612.15 392.07 616.755 395.103 622.731 396.062C627.389 395.235 630.969 394.102 635.071 391.725C628.686 389.278 623.787 386.868 619.03 381.805C618.336 379.801 618.071 377.916 617.822 375.814C615.797 375.991 613.732 375.909 611.699 375.91C608.445 365.397 607.962 354.767 608.21 343.848Z"/>
	<path fill="#DA9D54" transform="scale(1.04351 1.04351)" d="M617.822 375.814C628.231 373.194 652.888 360.882 662.412 364.611C663.378 365.721 663.335 365.676 663.317 367.153C662.377 368.765 661.639 369.209 659.829 369.682C655.547 370.8 650.974 370.663 646.745 371.963C637.328 374.858 628.921 379.12 619.03 381.805C618.336 379.801 618.071 377.916 617.822 375.814Z"/>
	<path fill="#DA9D54" transform="scale(1.04351 1.04351)" d="M715.068 449.11C724.445 450.918 734.081 457.339 739.31 465.373C742.364 470.064 744.128 476.597 742.964 482.214C742.902 482.512 742.774 482.792 742.679 483.081C740.366 485.788 738.029 488.221 735.292 490.505C736.621 484.945 737.849 479.571 735.86 473.961C732.221 463.696 721.124 459.03 712.082 454.667L715.068 449.11Z"/>
	<path fill="#DA9D54" transform="scale(1.04351 1.04351)" d="M692.308 193.609C694.39 194.566 696.404 195.497 698.603 196.164C698.436 205.366 702.355 213.67 708.7 220.211C714.732 226.431 723.063 231.513 731.932 231.706C742.294 231.933 754.358 225.278 761.558 218.163Q763.192 216.579 764.584 214.778C764.751 214.758 764.919 214.74 765.087 214.719C766.81 214.496 768.087 214.077 769.638 213.308L770.926 213.557C770.947 213.771 770.961 213.986 770.989 214.199C771.09 214.976 771.28 215.484 771.601 216.184L772.411 216.745C769.803 218.002 767.077 221.686 764.944 223.741C755.951 232.408 743.708 239.101 730.908 238.768C720.733 238.504 711.463 233.347 704.564 226.076C695.517 216.54 692.035 206.604 692.308 193.609Z"/>
	<path fill="#DA9D54" transform="scale(1.04351 1.04351)" d="M563.686 255.992C575.441 263.039 583.522 275.369 593.913 284.165C599.309 288.733 606.652 290.582 611.679 295.469C614.764 298.467 617.068 302.925 618.073 307.056C621.612 321.613 610.573 330.614 608.21 343.848C604.95 346.283 602.08 348.59 598.178 349.891C602.188 338.852 614.582 320.507 612.333 309.23C610.612 300.601 603.224 298.432 596.836 294.009L596.467 293.75C595.603 292.963 594.743 292.131 593.731 291.535C592.579 290.857 592.494 290.776 591.273 291.127C586.903 288.374 582.52 283.092 578.902 279.322C572.665 272.821 566.644 266.32 559.748 260.503C561.411 259.132 562.955 258.103 563.686 255.992Z"/>
	<path fill="#DA9D54" transform="scale(1.04351 1.04351)" d="M693.743 281.356C695.387 281.59 696.221 282.088 697.261 283.378C697.601 287.863 689.604 293.116 686.66 296.001Q683.579 299.038 681.073 302.565C674.891 311.37 672.864 322.532 674.77 333.043C676.758 344.009 682.954 354.181 692.172 360.539C709.173 372.263 725.2 364.321 743.143 361.146C749.045 360.101 760.937 359.983 765.638 364.227C766.708 365.193 766.706 365.574 766.872 366.92C766.231 368.503 765.726 368.9 764.38 369.836C759.245 368.469 754.285 367.306 748.935 367.41C733.544 367.71 722.212 376.378 704.339 373.263C692.522 371.204 682.064 363.338 675.372 353.569C668.084 342.931 664.712 328.874 667.165 316.137C670.016 301.328 681.703 289.607 693.743 281.356Z"/>
	<path fill="#DA9D54" transform="scale(1.04351 1.04351)" d="M893.596 341.16C882.793 344.419 873.896 351.413 865.925 359.266C862.936 362.211 860.138 365.382 856.886 368.041C855.415 368.233 855.315 368.202 853.996 367.518C853.253 366.343 852.939 366.008 853.142 364.554C854.037 358.153 873.679 343.977 879.457 340.797C884.187 338.193 889.434 335.597 894.859 337.165L896.12 336.715C897.06 340.988 898.215 345.319 898.734 349.665L899.332 352.545L899.002 353.451C892.271 371.641 873.656 378.21 874.516 401.088C874.841 409.716 878.948 417.54 879.582 426.001C877.344 427.46 875.088 428.766 873.354 430.833C873.357 429.094 873.45 427.669 872.666 426.085C869.532 422.997 860.041 422.454 855.79 422.489C849.974 422.538 840.512 423.929 835.773 427.233L835.311 428.341C836.574 431.394 846.925 435.741 850.307 439.506C848.961 439.19 848.501 438.816 847.262 439.503C847.225 440.794 847.408 441.729 847.722 442.964C841.87 439.226 835.03 435.439 828.573 432.886C822.819 447.544 812.79 455.797 798.533 462.019C796.591 462.867 783.423 467.131 783.02 467.485C782.642 468.685 782.556 469.282 783.122 470.457C785.372 475.124 791.653 477.742 796.366 479.044C806.204 481.762 822.306 482.624 832.509 481.026C836.283 480.435 840.177 478.39 843.949 478.32C845.536 478.291 846.18 478.915 847.156 480.06C847.046 481.325 846.744 481.818 845.718 482.615C842.978 484.745 835.267 487.572 831.854 487.601C830.098 487.037 824.74 486.866 823.039 487.679C822.773 487.807 822.564 488.029 822.327 488.204C814.216 488.917 804.631 487.726 796.773 485.737C789.918 484.002 781.249 480.935 777.609 474.453C775.487 470.677 775.774 466.74 777.032 462.71C783.081 443.349 807.303 431.875 823.964 423.339C819.215 406.397 808.456 393.369 791.495 387.398C788.46 386.33 780.902 384.929 778.898 382.374C777.99 381.217 777.997 380.764 777.98 379.372C778.393 378.682 778.432 378.325 779.226 377.995C781.801 376.924 785.283 378.197 787.795 379.032C804.715 384.657 817.623 393.521 825.802 409.611C827.711 413.366 828.623 417.464 829.678 421.521C842.139 416.161 857.035 414.024 869.931 418.8C856.571 370.338 890.909 372.81 895.751 344.007C895.154 342.674 894.779 342.102 893.596 341.16Z"/>
	<path fill="#2A2727" transform="scale(1.04351 1.04351)" d="M821.628 432.421C822.076 432.546 821.783 432.43 822.382 432.992C822.267 433.667 822.279 433.756 821.992 434.498C816.829 447.873 800.824 454.448 788.616 459.093C787.864 458.958 788.273 459.104 787.462 458.491C787.518 457.939 787.497 457.821 787.747 457.234C791.683 447.971 812.955 436.664 821.628 432.421Z"/>
	<path fill="#DA9D54" transform="scale(1.04351 1.04351)" d="M655.37 149.47L658.912 149.371Q657.551 152.455 656.562 155.677Q655.574 158.9 654.973 162.217C669.995 161.271 684.99 161.809 700.005 161.184Q697.907 163.171 695.892 165.242C696.924 166.306 698.143 167.903 699.527 168.421C696.902 171.342 693.639 173.787 690.761 176.467C678.781 187.624 664.953 198.528 647.862 199.43C642.337 199.721 637.161 198.693 631.904 197.094C628.954 199.367 625.99 201.39 622.8 203.312C626.06 226.4 618.794 246.84 640.575 263.25C649.182 269.735 658.924 271.513 669.464 269.927C683.166 267.865 695.988 261.769 708.713 270.949C717.39 277.208 722.812 289.618 724.295 299.939C724.902 304.158 726.652 315.275 723.86 318.793C723.072 319.785 722.512 319.701 721.355 319.793C719.498 318.254 719.363 314.989 719.161 312.737C717.995 299.699 716.828 286.03 705.968 277.034C701.073 272.98 695.39 272.159 689.253 272.834C683.503 273.466 677.818 275.253 672.144 276.381C659.23 278.947 646.277 276.809 635.763 268.644C625.469 260.65 618.965 249.457 617.488 236.495C617.149 233.522 617.115 230.545 617.108 227.555L614.276 223.01C609.916 221.744 605.846 221.295 601.32 221.196C600.279 218.425 599.588 215.934 599.291 212.978C602.639 213.885 606.004 214.665 609.389 215.424C610.15 214.617 610.911 214.11 611.82 213.494C614.718 210.46 615.227 205.356 615.725 201.366C616.323 195.996 616.297 190.677 617.219 185.321C615.439 181.683 613.427 178.295 611.969 174.495C613.417 174.451 614.856 174.589 616.298 174.695C617.322 176.029 617.375 176.131 618.974 176.614C619.992 176.408 620.942 176.245 621.909 175.853Q623.336 173.046 625.448 170.709C631.382 164.042 640.448 162.923 648.823 162.415C649.622 158.229 652.978 152.988 655.37 149.47Z"/>
	<path fill="#221E1C" transform="scale(1.04351 1.04351)" d="M615.725 201.366C615.929 203.327 616.921 204.884 617.301 206.799L617.745 218.419C614.979 217.378 612.223 216.267 609.389 215.424C610.15 214.617 610.911 214.11 611.82 213.494C614.718 210.46 615.227 205.356 615.725 201.366Z"/>
	<path fill="#2A2727" transform="scale(1.04351 1.04351)" d="M617.219 185.321Q621.813 189.57 626.628 193.568C623.74 196.124 620.595 198.341 617.476 200.602C617.39 202.663 617.252 204.736 617.301 206.799C616.921 204.884 615.929 203.327 615.725 201.366C616.323 195.996 616.297 190.677 617.219 185.321Z"/>
	<path fill="#2A2727" transform="scale(1.04351 1.04351)" d="M621.909 175.853Q623.336 173.046 625.448 170.709C631.382 164.042 640.448 162.923 648.823 162.415C645.758 172.202 639.064 183.37 631.298 190.185C626.896 186.777 623.058 183.792 619.885 179.189C620.581 178.13 621.462 177.036 621.909 175.853Z"/>
	<path fill="#2A2727" transform="scale(1.04351 1.04351)" d="M700.005 161.184Q697.907 163.171 695.892 165.242C693.383 166.882 691.064 169.288 688.8 171.278C683.143 176.249 677.542 181.423 671.259 185.604C662.757 191.264 650.186 195.524 639.896 193.153C638.843 192.91 638.646 192.917 638.037 191.991C639.576 188.564 643.277 186.044 645.169 182.694C648.726 176.394 652.508 169.9 654.729 162.99L654.973 162.217C669.995 161.271 684.99 161.809 700.005 161.184Z"/>
	<path fill="#2A2727" transform="scale(1.04351 1.04351)" d="M850.307 439.506C846.925 435.741 836.574 431.394 835.311 428.341L835.773 427.233C840.512 423.929 849.974 422.538 855.79 422.489C860.041 422.454 869.532 422.997 872.666 426.085C873.45 427.669 873.357 429.094 873.354 430.833C873.417 431 873.465 431.173 873.541 431.335C873.94 432.176 874.451 432.675 875.058 433.364C877.86 436.543 878.25 440.049 877.884 444.215C876.925 455.159 869.382 462.856 861.724 469.906C863.406 481.406 863.552 496.699 856.292 506.554Q854.957 508.342 853.499 510.032C853.622 510.172 853.746 510.311 853.867 510.452C856.208 513.187 857.045 516.316 856.71 519.937C856.352 523.814 853.988 527.294 851.01 529.684C847.096 532.826 842.502 533.621 837.612 532.912C835.324 532.581 832.279 531.895 831.038 529.693C830.205 528.215 830.515 526.571 831.126 525.09C832.016 522.93 833.507 521.194 834.973 519.41C836.933 517.024 838.974 514.243 841.399 512.332C847.203 507.761 851.761 506.2 856.056 499.643C849.767 500.74 845.212 500.423 839.706 496.691C836.523 494.533 833.245 491.2 831.854 487.601C835.267 487.572 842.978 484.745 845.718 482.615C846.744 481.818 847.046 481.325 847.156 480.06C846.18 478.915 845.536 478.291 843.949 478.32C840.177 478.39 836.283 480.435 832.509 481.026C822.306 482.624 806.204 481.762 796.366 479.044C791.653 477.742 785.372 475.124 783.122 470.457C782.556 469.282 782.642 468.685 783.02 467.485C783.423 467.131 796.591 462.867 798.533 462.019C812.79 455.797 822.819 447.544 828.573 432.886C835.03 435.439 841.87 439.226 847.722 442.964C847.408 441.729 847.225 440.794 847.262 439.503C848.501 438.816 848.961 439.19 850.307 439.506ZM850.307 439.506C848.961 439.19 848.501 438.816 847.262 439.503C847.225 440.794 847.408 441.729 847.722 442.964C851.993 449.545 856.649 455.565 860.403 462.518C862.113 461.15 863.767 459.58 865.291 458.009C871.993 451.098 873.187 442.732 873.077 433.61C873.005 433.734 872.935 433.859 872.861 433.982L872.491 434.594C870.224 438.394 867.165 440.971 862.78 442.078C857.927 443.303 854.403 441.897 850.307 439.506ZM849.042 511.336C845.191 513.603 836.726 520.464 835.613 524.912C835.324 526.069 835.491 526.189 836.103 527.121C837.101 527.384 838.047 527.631 839.077 527.733C843.545 527.472 846.596 526.597 849.715 523.198C851.584 521.16 853.352 518.036 853.038 515.156C852.852 513.444 851.887 512.719 850.673 511.663L849.042 511.336Z"/>
	<path fill="#2A2727" transform="scale(1.04351 1.04351)" d="M343.381 185.126C342.387 180.708 341.274 176.084 341.538 171.527C341.756 167.755 343.141 163.915 346.073 161.406C348.786 159.083 352.282 158.5 355.75 158.858C363.729 159.682 369.7 164.508 374.572 170.482C378.015 167.25 382.515 164.446 387.313 164.096C395.924 163.467 403.332 171.105 409.33 176.36C409.378 174.953 409.426 173.538 409.627 172.144C410.082 168.987 411.35 165.609 414.119 163.775C416.025 162.512 418.331 162.313 420.511 162.873C426.114 164.311 429.109 169.526 431.764 174.183C436.616 171.4 439.688 170.331 445.321 170.67C447.364 168.327 449.397 165.987 452.173 164.482C456.071 162.367 460.282 162.038 464.482 163.466C478.899 168.369 474.485 180.717 475.521 192.08Q475.777 194.668 476.264 197.223Q476.751 199.778 477.465 202.279Q478.179 204.78 479.113 207.207Q480.048 209.634 481.196 211.968C486.673 223.117 496.571 233.679 508.572 237.655C520.777 241.698 531.111 238.149 542.136 232.703C542.094 239.555 542.194 246.315 542.526 253.16C526.03 257.916 520.742 265.878 510.337 279.008C508.245 281.648 506.385 284.709 503.97 287.057C502.037 288.936 500.577 288.687 498.016 288.629C498.01 289.469 497.997 290.301 497.958 291.14C497.811 294.3 497.709 304.344 495.457 306.402L494.139 306.066L493.42 305.284C491.783 311.991 497.691 324.708 499.665 331.471C500.73 335.118 501.43 338.9 502.113 342.635C504.337 354.799 506.502 368.907 504.994 381.201C504.149 388.091 502.285 394.817 501.278 401.669C504.884 407.341 514.978 420.893 513.265 427.914C513.128 428.475 512.948 429.019 512.76 429.565C505.485 440.947 489.624 446.867 487.486 461.129L488.953 468.172C489.523 469.602 489.938 470.779 491.072 471.878C491.152 471.885 491.231 471.894 491.311 471.898C493.237 471.994 494.982 472.209 496.859 472.676C500.683 473.626 505.739 474.587 507.83 478.356C510.663 483.46 506.928 489.895 505.423 494.86C506.474 496.329 507.605 497.905 508.415 499.528C510.268 503.237 510.716 507.927 509.223 511.833C507.505 516.326 504.177 518.797 499.965 520.74C502.319 534.55 513.322 553.151 507.993 566.706C506.204 571.257 502.791 574.64 498.268 576.481C481.905 583.143 455.28 575.095 439.712 568.722C437.657 581.542 434.975 594.796 435.611 607.813C436.424 609.235 437.337 610.832 438.526 611.976C443.438 616.698 489.52 617.067 497.575 617.393C503.709 610.463 509.573 604.924 518.716 602.479C545.322 595.362 576.401 605.852 599.457 619.038C605.703 619.02 612.046 618.809 618.279 619.237C626.748 619.818 635.181 621.446 643.55 622.835C640.218 591.988 623.289 559.805 609.212 532.414C594.558 541.651 575.497 554.134 558.164 556.474C552.223 557.276 545.632 557.097 540.747 553.183C533.228 547.162 532.715 535.842 531.531 526.996C529.003 527.075 526.456 526.974 523.926 526.936C523.801 526.865 523.675 526.796 523.55 526.724C520.477 524.944 518.01 522.349 517.202 518.798C515.981 513.432 518.817 508.834 521.404 504.416C518.126 503.673 515.512 503.194 513.047 500.709C510.648 498.292 509.101 494.983 509.198 491.533C509.263 489.245 510.187 487.216 511.951 485.741C522.625 476.815 533.325 493.065 543.656 493.49C548.195 493.676 551.041 491.17 554.137 488.277C550.682 500.578 545.912 512.15 537.756 522.086C538.171 529.32 537.683 541.443 543.536 546.547C546.6 549.22 550.859 549.988 554.811 549.751C578.944 548.299 625.722 514.021 641.915 495.785C653.232 483.04 660.731 465.747 659.68 448.484C663.913 452.466 668.16 456.087 674.305 456.216C680.686 456.35 686.582 452.663 691.021 448.351C697.836 441.73 702.459 431.85 702.438 422.266C702.418 413.41 698.86 403.9 692.321 397.818C676.421 383.03 660.07 405.359 643.042 405.618C627.621 405.852 616.347 400.474 605.473 389.787L607.188 388.804C612.15 392.07 616.755 395.103 622.731 396.062C627.389 395.235 630.969 394.102 635.071 391.725C639.12 392.025 643.72 392.999 647.703 392.131C653.374 390.895 658.461 386.843 663.568 384.218C679.546 376.006 694.965 382.548 705.945 395.385C713.019 403.656 716.577 413.789 718.233 424.428C716.098 425.462 714.048 426.529 712.013 427.755C711.608 438.829 708.598 449.14 700.199 456.851C694.961 461.661 689.109 463.84 682.138 464.697C681.679 473.454 682.018 481.359 688.179 488.348C697.188 498.568 722.639 502.202 722.013 518.561C721.82 523.592 719.65 527.132 715.931 530.4C710.789 534.919 702.003 539.975 695.018 539.769C694.397 539.751 693.847 539.622 693.246 539.477L692.669 538.731C693.608 536.302 697.383 534.931 699.658 533.933C707.837 530.346 713.628 528.033 718.161 519.829C717.344 514.718 715.896 511.645 711.599 508.445C699.153 499.178 681.013 497.43 677.78 478.199C676.978 473.426 677.331 468.728 678.464 464.04C673.668 463.856 669.831 463.103 665.349 461.385C660.06 493.595 639.202 509.602 615.061 528.382C628.441 554.36 656.926 606.336 647.8 635.421C643.398 649.451 632.57 661.093 623.849 672.665C606.597 695.559 595.151 724.368 592.509 752.984C614.741 742.401 634.218 729.816 653.747 714.879C668.437 703.643 682.527 691.468 696.799 679.697C720.663 660.018 755.233 629.015 788.328 633.043C754.269 614.428 689.914 572.88 678.199 533.878C677.549 531.714 676.598 528.901 676.649 526.638C677.241 525.199 676.772 522.998 676.739 521.408L677.44 520.77L679.227 521.193C685.846 543.136 698.107 558.47 714.512 573.895C733.182 591.449 754.501 605.875 776.531 618.832C788.211 625.702 800.307 632.054 811.627 639.494C869.785 677.715 870.926 732.558 864.905 794.534Q863.123 812.755 860.837 830.92C860.174 836.174 859.758 841.702 858.708 846.878C856.793 848.209 855.037 849.238 852.86 850.082C857.868 811.22 866.432 754.465 857.98 716.679Q857.285 713.58 856.424 710.524Q855.562 707.467 854.535 704.462Q853.508 701.457 852.32 698.512Q851.131 695.567 849.784 692.691Q848.438 689.815 846.937 687.017Q845.435 684.218 843.784 681.505Q842.134 678.793 840.338 676.174Q838.542 673.555 836.606 671.037C825.736 657.036 808.712 641.829 790.414 639.56C762.156 636.056 736.209 656.571 715.313 673.086C675.594 704.477 639.112 741.167 591.691 760.995C590.475 782.98 590.703 804.752 590.546 826.741C590.484 835.359 589.938 843.96 589.87 852.574C589.047 856.192 588.418 860.078 587.066 863.528L586.429 863.584L586.079 863.129C585.178 838.173 584.327 813.233 584.741 788.254C584.876 780.158 584.405 771.558 585.496 763.565C575.642 766.832 565.331 769.205 554.951 766.975Q554.155 766.805 553.369 766.596Q552.583 766.387 551.808 766.139Q551.033 765.891 550.271 765.605Q549.51 765.318 548.763 764.995Q548.017 764.671 547.288 764.311Q546.558 763.95 545.848 763.554Q545.137 763.158 544.447 762.727Q543.757 762.296 543.089 761.831Q542.422 761.366 541.778 760.869Q541.134 760.371 540.516 759.842Q539.897 759.314 539.306 758.755Q538.715 758.196 538.152 757.608Q537.589 757.021 537.057 756.406Q536.524 755.791 536.022 755.15Q535.521 754.51 535.052 753.845Q534.582 753.18 534.147 752.493C519.265 729.275 535.12 695.198 545.396 672.909C547.46 668.432 551.815 663.027 552.679 658.297C552.723 658.054 552.756 657.81 552.794 657.567C552.909 657.443 553.032 657.328 553.138 657.197C555.511 654.257 557.011 649.55 558.867 646.166C565.055 634.877 576.211 625.693 587.934 620.62C569.16 610.569 541.212 602.946 520.147 609.19C514.467 610.873 509.578 614.049 505.115 617.892C510.175 618.218 515.233 618.61 520.242 619.429C526.682 620.482 547.028 625.241 550.524 630.304C550.715 630.581 550.839 630.899 550.996 631.197C550.177 632.061 550.058 631.968 548.906 631.971C541.641 631.989 530.02 628.161 522.162 626.999C505.214 624.492 487.422 623.49 470.293 623.383C469.39 643.756 466.638 665.906 450.666 680.501C448.145 682.805 445.475 684.65 442.421 686.176Q441.302 686.645 440.176 687.096C409.616 699.318 373.805 683.669 345.54 671.594C342.035 670.773 337.692 668.012 334.484 666.304C311.447 654.044 290.723 638.685 269.242 624.024C265.09 625.572 247.323 631.338 244.958 633.666C239.549 634.06 229.467 638.371 223.856 640.211C199.745 648.115 169.115 654.876 151.239 673.964C131.158 695.407 128.38 730.434 129.449 758.364C126.798 751.34 125.674 743.822 125.421 736.344C125.022 724.582 126.682 712.227 129.824 700.89C140.747 661.481 169.887 650.639 205.131 638.821L251.36 623.26C257.735 621.078 269.229 618.727 273.655 613.622C279.314 607.095 281.515 594.892 283.619 586.603C291.482 555.625 296.991 523.88 297.063 491.84C297.083 483.112 296.399 474.341 295.898 465.628C287.653 457.167 278.812 449.55 271.461 440.228C254.888 419.212 243.387 392.96 232.938 368.511C230.151 361.989 226.658 354.985 224.826 348.163C219.417 346.562 213.809 344.281 210.898 339.108C207.645 333.328 209.06 326.41 210.83 320.418C207.814 320.789 204.988 320.992 202.001 320.233C197.434 319.073 193.422 316.26 191.175 312.065C189.123 308.236 188.789 303.513 190.15 299.399C191.529 295.227 194.591 292.069 198.526 290.199C206.119 286.59 213.378 288.933 220.801 291.473C221.169 288.372 221.854 285.414 222.767 282.434C219.753 281.248 216.53 280.281 214.241 277.845C211.617 275.052 211.346 271.645 211.465 268.01C206.929 266.666 203.227 265.114 199.934 261.58C195.94 257.294 194.114 251.23 194.365 245.442C194.599 240.03 196.56 234.667 200.742 231.08C204.031 228.26 207.168 227.636 211.342 227.94L212.094 228C213.391 225.318 212.334 220.328 212.882 217.182C214.123 210.052 219.736 202.285 225.567 198.236C236.242 190.823 248.275 191.24 260.523 193.514C260.189 191.335 260.07 189.138 259.981 186.937C259.693 179.807 261.671 173.114 266.701 167.893C271.366 163.051 277.545 160.635 284.232 160.617C291.316 160.598 299.749 163.851 304.73 169.114C306.454 170.936 306.298 172.176 306.298 174.513C306.298 174.953 306.318 176.285 306.448 176.631C306.822 177.626 312.027 182.238 313.111 183.319C315.776 179.711 318.77 176.877 323.413 176.247C331.069 175.21 337.691 180.822 343.381 185.126ZM611.805 625.927C604.246 629.222 596.713 632.435 589.455 636.371C581.366 640.758 573.47 645.93 565.177 649.884C560.618 654.653 552.53 673.567 549.27 680.478C541.152 697.693 529.916 724.412 536.799 743.063C539.359 750 544.27 755.487 551.041 758.55C562.358 763.67 574.654 760.157 585.598 755.85C589.048 723.676 599.669 694.385 618.589 668.022C627.465 655.654 638.19 645.309 641.898 630.058C632.765 627.633 621.193 624.999 611.805 625.927ZM276.887 620.563C288.734 627.625 299.64 636.283 311.287 643.705C339.505 661.686 395.75 691.877 429.388 683.455C434.074 682.282 438.119 680.237 441.685 676.934C451.769 663.081 456.191 642.139 462.388 626.072C462.744 624.982 462.969 623.918 463.195 622.797C459.777 621.615 444.175 621.033 439.57 620.515C439.983 622.451 440.115 624.516 440.208 626.492C440.566 634.139 438.295 641.317 433.061 647.005C422.167 658.842 403.183 664.315 387.591 664.986C360.425 666.154 338.782 654.218 316.61 640.123C310.436 636.198 303.424 632.376 298.136 627.313C294.101 623.448 293.188 619.834 293.757 614.331C294.569 606.477 297.636 598.541 299.896 591.005Q303.234 579.86 305.766 568.505C311.129 544.658 314.782 519.774 315.069 495.296C315.207 483.618 314.342 472.107 313.993 460.459C308.48 458.847 304.583 456.238 300.508 452.329C297.561 449.422 295.501 446.053 293.771 442.32C288.36 430.641 283.756 407.547 288.673 395.204C290.439 390.769 293.857 387.036 298.34 385.276C307.382 381.724 317.248 386.863 324.059 392.709C325.637 394.064 327.96 396.95 329.867 397.604C330.484 397.815 330.716 397.485 331.236 397.196C332.231 395.672 332.507 394.597 332.754 392.804C332.575 392.717 332.395 392.632 332.218 392.542C322.952 387.881 319.584 380.06 307.856 379.048C304.699 378.775 301.562 378.954 298.52 379.899C291.354 382.125 286.482 387.911 283.239 394.409Q282.678 395.544 282.174 396.705Q281.669 397.867 281.223 399.052Q280.776 400.237 280.389 401.442Q280.002 402.648 279.675 403.871Q279.348 405.094 279.081 406.332Q278.815 407.57 278.61 408.819Q278.405 410.069 278.263 411.327Q278.12 412.585 278.039 413.849Q277.959 415.112 277.941 416.378Q277.923 417.644 277.968 418.91Q278.012 420.175 278.119 421.437Q278.227 422.699 278.396 423.953Q278.565 425.208 278.796 426.453Q279.028 427.698 279.32 428.93Q279.612 430.162 279.965 431.378Q280.318 432.594 280.731 433.791C282.967 440.39 287.054 446.413 291.532 451.704C294.305 454.981 301.348 460.287 302.399 463.92C303.81 468.802 303.62 474.722 303.804 479.786C305.092 515.258 299.513 551.05 290.839 585.355C288.563 594.355 286.451 603.962 282.394 612.351C280.9 615.441 279.106 617.961 276.887 620.563ZM281.066 167.573C276.122 168.73 271.901 170.42 268.98 174.857C266.029 179.338 265.848 185.094 266.99 190.19C268.48 196.834 272.409 202.838 278.294 206.364Q279.457 207.046 280.676 207.623C284.074 206.268 287.461 204.85 290.893 203.587L291.894 202.748C287.828 197.505 284.427 192.693 285.516 185.623Q285.601 185.041 285.743 184.47Q285.886 183.898 286.085 183.344Q286.283 182.79 286.536 182.259Q286.789 181.727 287.093 181.224Q287.398 180.72 287.751 180.249Q288.104 179.778 288.503 179.345Q288.901 178.912 289.34 178.52Q289.78 178.129 290.256 177.783C293.979 175.091 297.587 174.905 302.016 174.971C296.43 169.904 290.142 167.159 282.445 167.495Q281.755 167.527 281.066 167.573ZM242.813 199.113C234.813 200.334 227.758 202.997 222.802 209.841C219.861 213.904 217.54 219.668 218.563 224.755C219.198 227.91 221.46 230.88 224.229 232.493C225.838 233.431 227.649 234.125 229.361 234.852C229.537 232.949 229.629 230.991 229.979 229.111C231.778 223.712 235.164 220.561 240.197 218.028C245.818 215.199 251.635 214.112 257.819 213.279C256.211 208.78 256.042 204.855 256.075 200.125C251.57 199.228 247.404 198.84 242.813 199.113ZM211.301 233.024C206.878 234.3 203.32 235.979 200.996 240.235C199.273 243.391 198.956 247.404 200.158 250.799C200.681 252.278 201.664 253.615 202.553 254.894C205.576 256.473 208.697 257.456 211.941 258.478C214.611 258.699 218.008 256.131 219.99 254.235C220.611 253.643 220.598 253.62 221.035 253.038C220.938 249.918 220.006 247.014 220.359 243.887C220.439 243.178 220.518 242.473 220.61 241.764C217.126 239.084 215.344 234.251 213.943 233.315C213.339 232.911 212.029 233.054 211.301 233.024ZM203.023 295.124C200.198 296.244 198.345 297.285 197.073 300.17C196.01 302.579 196.063 305.21 197.102 307.616C198.136 310.01 200.127 311.751 202.568 312.609C205.996 313.815 208.675 312.598 211.893 311.421C214.103 311.031 216.161 310.973 218.402 311.017C218.375 306.145 218.5 301.801 219.709 297.053C214.042 295.359 208.978 294.372 203.023 295.124Z"/>
	<path fill="#DA9D54" transform="scale(1.04351 1.04351)" d="M399.404 288.065C402.048 287.112 403.849 286.769 406.622 287.365L406.957 287.981C404.888 289.567 402.203 289.102 399.778 289.53L399.404 288.065Z"/>
	<path fill="#DA9D54" transform="scale(1.04351 1.04351)" d="M422.124 285.508C422.723 285.481 423.648 285.373 424.259 285.511C425.445 285.778 426.357 286.525 426.828 287.655C427.994 290.455 426.295 294.198 425.277 296.837L424.692 297.159L424.18 296.952Q424.286 295.868 424.355 294.781C424.585 291.028 424.774 288.467 422.124 285.508Z"/>
	<path fill="#DA9D54" transform="scale(1.04351 1.04351)" d="M388.577 305.269Q389.214 305.45 389.844 305.654C391.668 306.252 393.813 307.283 394.489 309.255C394.996 310.733 394.546 311.46 394.007 312.814C392.019 312.144 388.67 311.024 387.957 308.769C387.48 307.259 387.953 306.598 388.577 305.269Z"/>
	<path fill="#DA9D54" transform="scale(1.04351 1.04351)" d="M399.404 288.065L399.778 289.53C399.15 292.555 401.137 294.866 400.379 297.848L399.554 298.017C397.358 296.803 395.593 295.051 393.74 293.379C395.498 291.399 397.374 289.755 399.404 288.065Z"/>
	<path fill="#DA9D54" transform="scale(1.04351 1.04351)" d="M413.856 288.233C414.276 288.31 414.827 288.382 415.2 288.593C416.43 289.289 416.648 290.053 417.091 291.282C416.795 294.109 415.824 295.285 413.756 297.195C413.624 297.115 413.486 297.046 413.362 296.956C411.944 295.919 411.055 294.639 410.876 292.883C411.311 290.848 412.489 289.743 413.856 288.233Z"/>
	<path fill="#DA9D54" transform="scale(1.04351 1.04351)" d="M475.559 292.646C477.898 293.305 480.469 294.645 481.754 296.798C482.708 298.396 482.342 299.397 481.884 301.051C481.477 301.138 480.943 301.265 480.536 301.28C479.325 301.325 478.252 301.017 477.404 300.11C475.586 298.167 475.482 295.15 475.559 292.646Z"/>
	<path fill="#DA9D54" transform="scale(1.04351 1.04351)" d="M443.197 292.838C443.812 292.916 444.777 292.97 445.374 293.219C446.554 293.71 447.376 294.775 447.784 295.968C448.208 297.205 447.937 298.557 447.389 299.708C446.7 301.153 445.581 301.568 444.201 302.123C442.406 301.602 440.415 300.926 439.404 299.212C438.987 298.506 438.88 297.797 439.048 297.013C439.542 294.708 441.316 293.933 443.197 292.838Z"/>
	<path fill="#DA9D54" transform="scale(1.04351 1.04351)" d="M377.426 306.94C378.383 307.131 378.208 307.066 378.938 307.288C380.118 307.648 380.185 307.431 380.801 308.576C378.989 311.698 376.046 312.57 374.442 316.195L374.185 316.79C375.246 320.424 376.964 323.244 378.957 326.43L378.634 326.724C376.589 325.896 374.61 322.77 373.399 320.951C371.901 318.701 371.004 315.907 371.706 313.216C372.48 310.248 374.926 308.432 377.426 306.94Z"/>
	<path fill="#DA9D54" transform="scale(1.04351 1.04351)" d="M517.35 487.653C520.77 488.039 533.39 495.256 535.987 497.776L534.856 498.181C530.374 499.215 525.911 500.434 521.36 498.927C519.533 498.323 517.882 497.266 517.083 495.453C515.963 492.911 516.4 490.155 517.35 487.653Z"/>
	<path fill="#DA9D54" transform="scale(1.04351 1.04351)" d="M497.796 479.615C499.63 479.437 500.897 479.512 502.348 480.691C502.877 482.517 503.185 483.817 502.175 485.597C499.859 489.677 489.107 489.191 484.904 489.842C481.869 490.313 479.025 491.1 476.107 492.041C474.379 492.478 472.614 492.811 470.871 493.187C480.407 488.175 486.773 481.62 497.796 479.615Z"/>
	<path fill="#DA9D54" transform="scale(1.04351 1.04351)" d="M462.388 626.072C463.351 641.264 458.308 659.761 448.16 671.361C446.274 673.516 444.225 675.57 441.685 676.934C451.769 663.081 456.191 642.139 462.388 626.072Z"/>
	<path fill="#DA9D54" transform="scale(1.04351 1.04351)" d="M565.177 649.884C568.463 643.478 574.221 637.567 580.154 633.547C588.811 627.682 601.34 623.863 611.805 625.927C604.246 629.222 596.713 632.435 589.455 636.371C581.366 640.758 573.47 645.93 565.177 649.884Z"/>
	<path fill="#DA9D54" transform="scale(1.04351 1.04351)" d="M546.035 500.641L546.232 500.8C546.289 501.243 546.332 501.348 546.231 501.849C545.074 507.616 538.073 517.458 532.813 519.992C530.531 521.091 528.786 520.99 526.446 520.176C525.486 518.913 524.764 517.584 524.375 516.038C523.793 513.719 523.745 511.439 525.1 509.381C529.279 503.03 539.262 502.258 546.035 500.641Z"/>
	<path fill="#DA9D54" transform="scale(1.04351 1.04351)" d="M635.071 391.725C639.12 392.025 643.72 392.999 647.703 392.131C653.374 390.895 658.461 386.843 663.568 384.218C679.546 376.006 694.965 382.548 705.945 395.385C713.019 403.656 716.577 413.789 718.233 424.428C716.098 425.462 714.048 426.529 712.013 427.755C711.36 419.542 710.056 412.384 705.772 405.219C700.968 397.186 691.727 389.111 682.48 386.933C670.151 384.028 665.578 390.212 656.33 395.877C645.922 402.253 633.723 398.603 622.731 396.062C627.389 395.235 630.969 394.102 635.071 391.725Z"/>
	<path fill="#FEFBFE" transform="scale(1.04351 1.04351)" d="M342.763 427.859C341.748 419.957 341.162 411.344 339.111 403.644C338.433 401.097 335.981 397.044 336.66 394.649C355.773 427.631 346.147 498.589 368.774 523.523C379.524 535.369 393.631 541.351 406.339 550.429C389.158 545.505 367.634 532.923 358.639 516.882C350.156 501.751 349.892 477.037 345.882 459.717Q343.603 449.896 341.777 439.98L340.903 433.605L341.02 432.59C341.235 430.653 341.784 429.536 342.763 427.859Z"/>
	<path fill="#DA9D54" transform="scale(1.04351 1.04351)" d="M342.763 427.859C343.061 430.206 343.449 432.575 343.592 434.937C344.618 442.962 346.226 451.638 345.882 459.717Q343.603 449.896 341.777 439.98L340.903 433.605L341.02 432.59C341.235 430.653 341.784 429.536 342.763 427.859Z"/>
	<path fill="#DA9D54" transform="scale(1.04351 1.04351)" d="M490.272 494.733C492.26 494.571 494.976 495.096 496.793 495.951C499.443 497.197 501.411 500.02 502.272 502.752C502.917 504.799 503.218 507.723 502.006 509.641C496.507 518.338 477.631 502.057 470.928 503.218C470.63 503.997 470.491 503.921 470.687 504.602C471.975 509.068 487.389 517.064 491.708 519.567C492.063 523.668 492.845 527.384 493.898 531.357C494.661 534.081 496.856 536.879 495.926 539.635L495.189 539.633L494.701 539.02C494.475 538.74 494.232 538.474 494.018 538.185C491.172 534.332 484.054 532.304 479.873 529.724C470.11 523.7 465.582 514.103 463.147 503.205C462.671 501.073 461.622 497.036 462.793 495.194C462.949 495.336 463.097 495.487 463.261 495.619C468.125 499.541 484.039 495.371 490.272 494.733Z"/>
	<path fill="#DA9D54" transform="scale(1.04351 1.04351)" d="M300.508 452.329C297.561 449.422 295.501 446.053 293.771 442.32C288.36 430.641 283.756 407.547 288.673 395.204C290.439 390.769 293.857 387.036 298.34 385.276C307.382 381.724 317.248 386.863 324.059 392.709C325.637 394.064 327.96 396.95 329.867 397.604C330.484 397.815 330.716 397.485 331.236 397.196C332.231 395.672 332.507 394.597 332.754 392.804C333.981 392.57 334.575 392.433 335.728 392.969C336.085 393.524 336.469 394.013 336.66 394.649C335.981 397.044 338.433 401.097 339.111 403.644C341.162 411.344 341.748 419.957 342.763 427.859C341.784 429.536 341.235 430.653 341.02 432.59L340.903 433.605C340.449 431.112 340.05 428.594 339.486 426.125C337.744 431.375 336.559 436.367 336.515 441.928C336.454 449.58 338.178 457.519 339.35 465.066C342.41 484.778 344.64 506.138 353.636 524.183C364.873 546.722 389.657 568.267 413.603 576.034C419.279 577.874 425.023 578.703 430.974 578.962C429.594 588.733 424.926 607.422 431.015 615.735C433.102 618.585 436.156 619.923 439.57 620.515C439.983 622.451 440.115 624.516 440.208 626.492C440.566 634.139 438.295 641.317 433.061 647.005C422.167 658.842 403.183 664.315 387.591 664.986C360.425 666.154 338.782 654.218 316.61 640.123C310.436 636.198 303.424 632.376 298.136 627.313C294.101 623.448 293.188 619.834 293.757 614.331C294.569 606.477 297.636 598.541 299.896 591.005Q303.234 579.86 305.766 568.505C311.129 544.658 314.782 519.774 315.069 495.296C315.207 483.618 314.342 472.107 313.993 460.459C308.48 458.847 304.583 456.238 300.508 452.329Z"/>
	<path fill="#2A2727" transform="scale(1.04351 1.04351)" d="M300.508 452.329C301.505 450.865 301.91 449.873 303.525 449.094C307.323 449.705 309.983 451.166 313.54 452.383C319.841 454.539 327.428 451.289 333.315 449.054C331.459 453.623 329.43 457.439 324.589 459.459C321.361 460.805 317.422 460.914 313.993 460.459C308.48 458.847 304.583 456.238 300.508 452.329Z"/>
	<path fill="#2A2727" transform="scale(1.04351 1.04351)" d="M312.045 394.953C318.219 394.393 324.385 397.946 329.268 401.498C326.393 404.505 318.462 400.957 314.404 403.858C312.034 405.552 310.734 408.142 310.231 410.963C308.88 418.541 312.011 427.014 316.329 433.13C318.04 435.179 320.197 436.867 322.125 438.715L321.585 439.347C321.132 439.308 320.9 439.307 320.477 439.211C315.943 438.184 312.524 434.186 310.063 430.486C305.451 423.548 302.35 414.705 304.223 406.349C305.308 401.506 307.898 397.659 312.045 394.953Z"/>
	<path fill="#DA9D54" transform="scale(1.04351 1.04351)" d="M484.633 289.094C486.789 288.747 488.766 288.364 490.956 288.642C491.785 289.196 492.345 289.68 492.802 290.567C494.862 294.568 495.471 301.824 494.139 306.066L493.42 305.284C491.783 311.991 497.691 324.708 499.665 331.471C500.73 335.118 501.43 338.9 502.113 342.635C504.337 354.799 506.502 368.907 504.994 381.201C504.149 388.091 502.285 394.817 501.278 401.669C504.884 407.341 514.978 420.893 513.265 427.914C513.128 428.475 512.948 429.019 512.76 429.565C505.485 440.947 489.624 446.867 487.486 461.129L488.953 468.172C489.523 469.602 489.938 470.779 491.072 471.878C481.48 475.662 473.336 481.827 463.469 485.267C462.847 483.685 462.211 481.458 460.863 480.324C459.904 479.518 458.556 479.21 457.333 479.446C452.301 480.42 450.216 494.305 447.672 498.506C447.065 499.51 446.051 500.581 444.835 500.724C434.476 501.945 392.935 465.884 384.041 457.492C378.911 452.652 374.223 445.945 368.448 442.033C366.818 440.929 365.011 439.792 363.589 438.431C361.429 436.361 360.383 433.054 359.545 430.245C356.75 420.876 349.744 381.41 350.008 372.197C350.358 360 359.486 355.597 368.996 351.13C374.423 348.58 379.853 346.326 385.429 344.128C388.917 342.753 393.022 341.589 395.801 338.99C395.586 334.098 383.723 326.294 382.725 317.871C383.034 317.105 383.015 316.621 383.801 316.222C386.152 315.03 388.964 316.376 391.27 317.141C393.774 316.472 397.234 315.705 398.619 313.23C400.188 310.428 398.598 307.168 397.648 304.436C397.791 304.509 397.934 304.583 398.078 304.654L398.802 305.006C401.967 306.575 405.018 307.384 408.584 307.175C412.118 306.968 426.519 301.385 428.456 298.536C429.953 296.335 430.205 293.235 432.07 291.293C432.758 290.577 432.411 290.748 433.325 290.699C432.726 295.373 431.309 299.174 434.151 303.454C435.992 306.226 439.051 308.153 442.317 308.741Q442.939 308.856 443.569 308.905Q444.2 308.954 444.832 308.936Q445.464 308.918 446.09 308.834Q446.717 308.749 447.331 308.599Q447.945 308.449 448.54 308.235Q449.135 308.021 449.705 307.746Q450.274 307.47 450.81 307.136Q451.347 306.802 451.846 306.413C455.044 303.938 456.08 301.048 456.689 297.18C460.216 297.777 463.686 297.846 467.255 297.914C469.284 298.779 471.039 303.353 472.504 305.205C474.496 307.723 477.709 310.807 481.072 311.145C483.476 311.386 485.811 310.035 487.5 308.431C489.766 306.278 490.395 303.424 490.296 300.394C490.155 296.039 487.643 292.069 484.633 289.094Z"/>
	<path fill="#2A2727" transform="scale(1.04351 1.04351)" d="M492.679 443.796C488.109 446.767 482.637 449.235 479.228 453.63C477.748 455.538 476.332 458.782 477.019 461.252C477.227 462.004 477.488 462.621 478.216 462.954C480.629 464.059 485.094 461.925 487.486 461.129L488.953 468.172C484.384 469.772 479.392 471.16 474.766 468.765C473.288 468 472.205 466.889 471.714 465.268C470.929 462.679 471.761 459.657 472.988 457.342C476.661 450.414 485.521 446.077 492.679 443.796Z"/>
	<path fill="#2A2727" transform="scale(1.04351 1.04351)" d="M512.76 429.565C511.492 428.411 496.999 406.717 495.521 404.105C494.494 402.29 493.619 400.364 493.106 398.337C491.508 392.025 493.469 385.171 496.906 379.803C498.291 377.64 501.087 373.642 503.62 373.072C505.251 375.885 499.207 387.519 498.626 391.592C498.098 395.293 498.709 398.306 500.976 401.282C501.075 401.413 501.178 401.54 501.278 401.669C504.884 407.341 514.978 420.893 513.265 427.914C513.128 428.475 512.948 429.019 512.76 429.565Z"/>
	<path fill="#2A2727" transform="scale(1.04351 1.04351)" d="M474.018 402.267C476.654 405.754 476.084 411.42 479.3 414.686C480.367 415.77 481.916 416.307 483.415 416.204C484.207 416.15 484.981 416.065 485.778 416.036L485.875 417.034C485.353 418.143 485.339 418.524 484.063 418.867C480.982 419.696 477.256 417.761 474.628 416.359C473.011 418.423 471.376 420.096 468.991 421.272C462.689 424.376 455.602 422.514 449.364 420.291C443.169 417.798 438.662 414.544 434.445 409.362C434.555 409.373 434.664 409.387 434.774 409.396C443.992 410.182 454.174 416.001 463.385 413.337C469.123 411.678 471.419 407.147 474.018 402.267Z"/>
	<path fill="#2A2727" transform="scale(1.04351 1.04351)" d="M455.812 368.197C463.267 367.573 478.685 367.086 485.569 369.791C487.242 370.448 489.047 371.764 489.616 373.558C490.043 374.901 490.065 376.188 489.395 377.463C488.676 378.832 487.323 379.755 485.843 380.123C480.262 381.511 473.253 380.644 467.501 380.711C460.305 380.795 453.43 381.536 446.393 383.047C436.996 385.138 428.167 389.11 419.358 392.898Q421.741 388.127 425.118 384C433.215 373.998 443.202 369.527 455.812 368.197Z"/>
</svg>
